<svg width="360" height="640" viewBox="0 0 360 640" fill="none" xmlns="http://www.w3.org/2000/svg">
<rect width="360" height="640" fill="#16161A"/>
<path d="M82.9432 156.727H78.0227V180H82.9432V156.727ZM91.7415 169.909C91.7528 167.659 93.0938 166.341 95.0483 166.341C96.9915 166.341 98.1619 167.614 98.1506 169.75V180H102.991V168.886C102.991 164.818 100.605 162.318 96.9688 162.318C94.3778 162.318 92.5028 163.591 91.7188 165.625H91.5142V162.545H86.9006V180H91.7415V169.909ZM106.807 180H111.648V162.545H106.807V180ZM109.239 160.295C110.682 160.295 111.864 159.193 111.864 157.841C111.864 156.5 110.682 155.398 109.239 155.398C107.807 155.398 106.625 156.5 106.625 157.841C106.625 159.193 107.807 160.295 109.239 160.295ZM123.412 180.341C128.06 180.341 130.98 177.614 131.207 173.602H126.639C126.355 175.466 125.128 176.511 123.469 176.511C121.207 176.511 119.741 174.614 119.741 171.273C119.741 167.977 121.219 166.091 123.469 166.091C125.241 166.091 126.378 167.261 126.639 169H131.207C131.003 164.966 127.946 162.318 123.389 162.318C118.094 162.318 114.821 165.989 114.821 171.341C114.821 176.648 118.037 180.341 123.412 180.341ZM134.307 180H139.148V162.545H134.307V180ZM136.739 160.295C138.182 160.295 139.364 159.193 139.364 157.841C139.364 156.5 138.182 155.398 136.739 155.398C135.307 155.398 134.125 156.5 134.125 157.841C134.125 159.193 135.307 160.295 136.739 160.295ZM148.003 180.33C150.582 180.33 152.253 179.205 153.105 177.58H153.241V180H157.832V168.227C157.832 164.068 154.31 162.318 150.423 162.318C146.241 162.318 143.491 164.318 142.821 167.5L147.298 167.864C147.628 166.705 148.662 165.852 150.401 165.852C152.048 165.852 152.991 166.682 152.991 168.114V168.182C152.991 169.307 151.798 169.455 148.764 169.75C145.31 170.068 142.207 171.227 142.207 175.125C142.207 178.58 144.673 180.33 148.003 180.33ZM149.389 176.989C147.901 176.989 146.832 176.295 146.832 174.966C146.832 173.602 147.957 172.932 149.662 172.693C150.719 172.545 152.446 172.295 153.026 171.909V173.761C153.026 175.591 151.514 176.989 149.389 176.989ZM161.588 180H166.429V170.125C166.429 167.977 167.997 166.5 170.134 166.5C170.804 166.5 171.724 166.614 172.179 166.761V162.466C171.747 162.364 171.145 162.295 170.656 162.295C168.702 162.295 167.099 163.432 166.463 165.591H166.281V162.545H161.588V180ZM196.611 167.523C196.179 164.307 193.588 162.318 189.179 162.318C184.713 162.318 181.77 164.386 181.781 167.75C181.77 170.364 183.418 172.057 186.827 172.739L189.849 173.341C191.372 173.648 192.065 174.205 192.088 175.08C192.065 176.114 190.94 176.852 189.247 176.852C187.52 176.852 186.372 176.114 186.077 174.693L181.315 174.943C181.77 178.284 184.611 180.341 189.236 180.341C193.759 180.341 196.997 178.034 197.009 174.591C196.997 172.068 195.349 170.557 191.963 169.864L188.804 169.227C187.179 168.875 186.577 168.318 186.588 167.477C186.577 166.432 187.759 165.75 189.259 165.75C190.94 165.75 191.94 166.67 192.179 167.795L196.611 167.523ZM208.011 180.341C212.33 180.341 215.239 178.239 215.92 175L211.443 174.705C210.955 176.034 209.705 176.727 208.091 176.727C205.67 176.727 204.136 175.125 204.136 172.523V172.511H216.023V171.182C216.023 165.25 212.432 162.318 207.818 162.318C202.682 162.318 199.352 165.966 199.352 171.352C199.352 176.886 202.636 180.341 208.011 180.341ZM204.136 169.511C204.239 167.523 205.75 165.932 207.898 165.932C210 165.932 211.455 167.432 211.466 169.511H204.136ZM233.705 167.523C233.273 164.307 230.682 162.318 226.273 162.318C221.807 162.318 218.864 164.386 218.875 167.75C218.864 170.364 220.511 172.057 223.92 172.739L226.943 173.341C228.466 173.648 229.159 174.205 229.182 175.08C229.159 176.114 228.034 176.852 226.341 176.852C224.614 176.852 223.466 176.114 223.17 174.693L218.409 174.943C218.864 178.284 221.705 180.341 226.33 180.341C230.852 180.341 234.091 178.034 234.102 174.591C234.091 172.068 232.443 170.557 229.057 169.864L225.898 169.227C224.273 168.875 223.67 168.318 223.682 167.477C223.67 166.432 224.852 165.75 226.352 165.75C228.034 165.75 229.034 166.67 229.273 167.795L233.705 167.523ZM237.151 180H241.991V162.545H237.151V180ZM239.582 160.295C241.026 160.295 242.207 159.193 242.207 157.841C242.207 156.5 241.026 155.398 239.582 155.398C238.151 155.398 236.969 156.5 236.969 157.841C236.969 159.193 238.151 160.295 239.582 160.295ZM253.756 180.341C259.051 180.341 262.347 176.716 262.347 171.341C262.347 165.932 259.051 162.318 253.756 162.318C248.46 162.318 245.165 165.932 245.165 171.341C245.165 176.716 248.46 180.341 253.756 180.341ZM253.778 176.591C251.335 176.591 250.085 174.352 250.085 171.307C250.085 168.261 251.335 166.011 253.778 166.011C256.176 166.011 257.426 168.261 257.426 171.307C257.426 174.352 256.176 176.591 253.778 176.591ZM252.017 160.295H255.438L258.903 155.125H254.426L252.017 160.295ZM270.335 169.909C270.347 167.659 271.688 166.341 273.642 166.341C275.585 166.341 276.756 167.614 276.744 169.75V180H281.585V168.886C281.585 164.818 279.199 162.318 275.562 162.318C272.972 162.318 271.097 163.591 270.312 165.625H270.108V162.545H265.494V180H270.335V169.909Z" fill="#FFFFFE"/>
<rect x="16" y="220" width="328" height="48" rx="4" fill="#EF4565"/>
<path d="M92.045 242.239V246.06H97.49C96.778 248.375 94.843 250.032 92.045 250.032C88.713 250.032 86.012 247.331 86.012 244C86.012 240.669 88.713 237.968 92.045 237.968C93.543 237.968 94.911 238.517 95.966 239.421L98.78 236.607C97.003 234.988 94.639 234 92.045 234C86.521 234 82.043 238.477 82.043 244C82.043 249.523 86.521 254 92.045 254C100.441 254 102.294 246.15 101.471 242.252L92.045 242.239Z" fill="#FFFFFE"/>
<path d="M122.608 242.29C122.25 239.705 120.261 238.205 117.682 238.205C114.642 238.205 112.352 240.42 112.352 244.182C112.352 247.938 114.614 250.159 117.682 250.159C120.449 250.159 122.284 248.369 122.608 246.148L120.483 246.136C120.216 247.5 119.102 248.267 117.71 248.267C115.824 248.267 114.472 246.852 114.472 244.182C114.472 241.557 115.812 240.097 117.716 240.097C119.131 240.097 120.239 240.898 120.483 242.29H122.608ZM128.254 250.17C130.811 250.17 132.436 248.369 132.436 245.67C132.436 242.966 130.811 241.159 128.254 241.159C125.697 241.159 124.072 242.966 124.072 245.67C124.072 248.369 125.697 250.17 128.254 250.17ZM128.266 248.523C126.851 248.523 126.158 247.261 126.158 245.665C126.158 244.068 126.851 242.79 128.266 242.79C129.658 242.79 130.351 244.068 130.351 245.665C130.351 247.261 129.658 248.523 128.266 248.523ZM136.239 244.886C136.239 243.625 137 242.898 138.085 242.898C139.148 242.898 139.784 243.597 139.784 244.761V250H141.841V244.443C141.847 242.352 140.653 241.159 138.852 241.159C137.545 241.159 136.648 241.784 136.25 242.756H136.148V241.273H134.182V250H136.239V244.886ZM148.29 241.273H146.568V239.182H144.511V241.273H143.273V242.864H144.511V247.716C144.5 249.358 145.693 250.165 147.239 250.119C147.824 250.102 148.227 249.989 148.449 249.915L148.102 248.307C147.989 248.335 147.756 248.386 147.5 248.386C146.983 248.386 146.568 248.205 146.568 247.375V242.864H148.29V241.273ZM150.01 250H152.067V241.273H150.01V250ZM151.044 240.034C151.697 240.034 152.232 239.534 152.232 238.92C152.232 238.301 151.697 237.801 151.044 237.801C150.385 237.801 149.851 238.301 149.851 238.92C149.851 239.534 150.385 240.034 151.044 240.034ZM156.239 244.886C156.239 243.625 157 242.898 158.085 242.898C159.148 242.898 159.784 243.597 159.784 244.761V250H161.841V244.443C161.847 242.352 160.653 241.159 158.852 241.159C157.545 241.159 156.648 241.784 156.25 242.756H156.148V241.273H154.182V250H156.239V244.886ZM169.494 246.33C169.494 247.659 168.545 248.318 167.636 248.318C166.648 248.318 165.989 247.619 165.989 246.511V241.273H163.932V246.83C163.932 248.926 165.125 250.114 166.841 250.114C168.148 250.114 169.068 249.426 169.466 248.449H169.557V250H171.551V241.273H169.494V246.33ZM176.178 250.176C177.547 250.176 178.365 249.534 178.74 248.801H178.808V250H180.786V244.159C180.786 241.852 178.905 241.159 177.24 241.159C175.405 241.159 173.996 241.977 173.541 243.568L175.462 243.841C175.666 243.244 176.246 242.733 177.251 242.733C178.206 242.733 178.729 243.222 178.729 244.08V244.114C178.729 244.705 178.109 244.733 176.57 244.898C174.876 245.08 173.257 245.585 173.257 247.551C173.257 249.267 174.513 250.176 176.178 250.176ZM176.712 248.665C175.854 248.665 175.24 248.273 175.24 247.517C175.24 246.727 175.928 246.398 176.848 246.267C177.388 246.193 178.467 246.057 178.734 245.841V246.869C178.734 247.841 177.95 248.665 176.712 248.665ZM182.854 250H184.911V244.869C184.911 243.761 185.746 242.977 186.876 242.977C187.223 242.977 187.655 243.04 187.831 243.097V241.205C187.643 241.17 187.32 241.148 187.092 241.148C186.092 241.148 185.257 241.716 184.939 242.727H184.848V241.273H182.854V250ZM196.973 250.17C199.166 250.17 200.564 248.869 200.712 247.017H198.746C198.57 247.955 197.893 248.494 196.99 248.494C195.706 248.494 194.876 247.42 194.876 245.636C194.876 243.875 195.723 242.818 196.99 242.818C197.979 242.818 198.587 243.455 198.746 244.295H200.712C200.57 242.403 199.092 241.159 196.962 241.159C194.405 241.159 192.791 243.006 192.791 245.67C192.791 248.312 194.365 250.17 196.973 250.17ZM206.207 250.17C208.764 250.17 210.389 248.369 210.389 245.67C210.389 242.966 208.764 241.159 206.207 241.159C203.651 241.159 202.026 242.966 202.026 245.67C202.026 248.369 203.651 250.17 206.207 250.17ZM206.219 248.523C204.804 248.523 204.111 247.261 204.111 245.665C204.111 244.068 204.804 242.79 206.219 242.79C207.611 242.79 208.304 244.068 208.304 245.665C208.304 247.261 207.611 248.523 206.219 248.523ZM214.192 244.886C214.192 243.625 214.953 242.898 216.038 242.898C217.101 242.898 217.737 243.597 217.737 244.761V250H219.794V244.443C219.8 242.352 218.607 241.159 216.805 241.159C215.499 241.159 214.601 241.784 214.203 242.756H214.101V241.273H212.135V250H214.192V244.886ZM233.74 242.08H235.888C235.53 239.795 233.553 238.205 230.979 238.205C227.933 238.205 225.649 240.443 225.649 244.193C225.649 247.875 227.831 250.159 231.041 250.159C233.922 250.159 235.984 248.307 235.984 245.307V243.909H231.263V245.557H233.945C233.911 247.216 232.803 248.267 231.053 248.267C229.104 248.267 227.768 246.807 227.768 244.17C227.768 241.551 229.126 240.097 231.007 240.097C232.411 240.097 233.365 240.847 233.74 242.08ZM241.739 250.17C244.295 250.17 245.92 248.369 245.92 245.67C245.92 242.966 244.295 241.159 241.739 241.159C239.182 241.159 237.557 242.966 237.557 245.67C237.557 248.369 239.182 250.17 241.739 250.17ZM241.75 248.523C240.335 248.523 239.642 247.261 239.642 245.665C239.642 244.068 240.335 242.79 241.75 242.79C243.142 242.79 243.835 244.068 243.835 245.665C243.835 247.261 243.142 248.523 241.75 248.523ZM251.473 250.17C254.03 250.17 255.655 248.369 255.655 245.67C255.655 242.966 254.03 241.159 251.473 241.159C248.916 241.159 247.291 242.966 247.291 245.67C247.291 248.369 248.916 250.17 251.473 250.17ZM251.484 248.523C250.07 248.523 249.376 247.261 249.376 245.665C249.376 244.068 250.07 242.79 251.484 242.79C252.876 242.79 253.57 244.068 253.57 245.665C253.57 247.261 252.876 248.523 251.484 248.523ZM261.196 253.455C263.554 253.455 265.293 252.375 265.293 250.142V241.273H263.264V242.716H263.151C262.838 242.085 262.185 241.159 260.645 241.159C258.628 241.159 257.043 242.739 257.043 245.608C257.043 248.455 258.628 249.875 260.639 249.875C262.134 249.875 262.832 249.074 263.151 248.432H263.253V250.085C263.253 251.369 262.401 251.898 261.23 251.898C259.991 251.898 259.446 251.312 259.196 250.801L257.344 251.25C257.719 252.472 258.974 253.455 261.196 253.455ZM261.213 248.261C259.855 248.261 259.139 247.205 259.139 245.597C259.139 244.011 259.844 242.847 261.213 242.847C262.537 242.847 263.264 243.943 263.264 245.597C263.264 247.261 262.526 248.261 261.213 248.261ZM269.457 238.364H267.401V250H269.457V238.364ZM275.436 250.17C277.47 250.17 278.868 249.176 279.232 247.659L277.311 247.443C277.033 248.182 276.351 248.568 275.464 248.568C274.135 248.568 273.254 247.693 273.237 246.199H279.317V245.568C279.317 242.506 277.476 241.159 275.328 241.159C272.828 241.159 271.197 242.994 271.197 245.688C271.197 248.426 272.805 250.17 275.436 250.17ZM273.243 244.812C273.305 243.699 274.129 242.761 275.357 242.761C276.538 242.761 277.334 243.625 277.345 244.812H273.243Z" fill="#FFFFFE"/>
<line x1="16" y1="283.5" x2="344" y2="283.5" stroke="#94A1B2"/>
<path d="M42.7727 310C42.3409 307.614 40.4318 306.205 38.0909 306.205C35.1136 306.205 32.9545 308.5 32.9545 312.182C32.9545 315.864 35.1136 318.159 38.0909 318.159C40.4318 318.159 42.3409 316.75 42.7727 314.364H41.3636C41.0227 315.977 39.6364 316.841 38.0909 316.841C35.9773 316.841 34.3182 315.205 34.3182 312.182C34.3182 309.159 35.9773 307.523 38.0909 307.523C39.6364 307.523 41.0227 308.386 41.3636 310H42.7727ZM48.4134 318.182C50.777 318.182 52.3679 316.386 52.3679 313.682C52.3679 310.955 50.777 309.159 48.4134 309.159C46.0497 309.159 44.4588 310.955 44.4588 313.682C44.4588 316.386 46.0497 318.182 48.4134 318.182ZM48.4134 316.977C46.6179 316.977 45.7997 315.432 45.7997 313.682C45.7997 311.932 46.6179 310.364 48.4134 310.364C50.2088 310.364 51.027 311.932 51.027 313.682C51.027 315.432 50.2088 316.977 48.4134 316.977ZM54.4148 318H55.7557V312.477C55.7557 311.295 56.6875 310.432 57.9602 310.432C58.3182 310.432 58.6875 310.5 58.7784 310.523V309.159C58.625 309.148 58.2727 309.136 58.0739 309.136C57.0284 309.136 56.1193 309.727 55.8011 310.591H55.7102V309.273H54.4148V318ZM60.3679 318H61.7088V312.477C61.7088 311.295 62.6406 310.432 63.9134 310.432C64.2713 310.432 64.6406 310.5 64.7315 310.523V309.159C64.5781 309.148 64.2259 309.136 64.027 309.136C62.9815 309.136 62.0724 309.727 61.7543 310.591H61.6634V309.273H60.3679V318ZM69.7145 318.182C71.4872 318.182 72.7827 317.295 73.1918 315.977L71.8963 315.614C71.5554 316.523 70.7656 316.977 69.7145 316.977C68.1406 316.977 67.0554 315.96 66.9929 314.091H73.3281V313.523C73.3281 310.273 71.3963 309.159 69.5781 309.159C67.2145 309.159 65.6463 311.023 65.6463 313.705C65.6463 316.386 67.1918 318.182 69.7145 318.182ZM66.9929 312.932C67.0838 311.574 68.044 310.364 69.5781 310.364C71.0327 310.364 71.9645 311.455 71.9645 312.932H66.9929ZM78.9134 318.182C81.277 318.182 82.8679 316.386 82.8679 313.682C82.8679 310.955 81.277 309.159 78.9134 309.159C76.5497 309.159 74.9588 310.955 74.9588 313.682C74.9588 316.386 76.5497 318.182 78.9134 318.182ZM78.9134 316.977C77.1179 316.977 76.2997 315.432 76.2997 313.682C76.2997 311.932 77.1179 310.364 78.9134 310.364C80.7088 310.364 81.527 311.932 81.527 313.682C81.527 315.432 80.7088 316.977 78.9134 316.977ZM93.0739 318.182C94.8466 318.182 96.142 317.295 96.5511 315.977L95.2557 315.614C94.9148 316.523 94.125 316.977 93.0739 316.977C91.5 316.977 90.4148 315.96 90.3523 314.091H96.6875V313.523C96.6875 310.273 94.7557 309.159 92.9375 309.159C90.5739 309.159 89.0057 311.023 89.0057 313.705C89.0057 316.386 90.5511 318.182 93.0739 318.182ZM90.3523 312.932C90.4432 311.574 91.4034 310.364 92.9375 310.364C94.392 310.364 95.3239 311.455 95.3239 312.932H90.3523ZM100.068 306.364H98.7273V318H100.068V306.364ZM106.183 318.182C107.956 318.182 109.251 317.295 109.661 315.977L108.365 315.614C108.024 316.523 107.234 316.977 106.183 316.977C104.609 316.977 103.524 315.96 103.462 314.091H109.797V313.523C109.797 310.273 107.865 309.159 106.047 309.159C103.683 309.159 102.115 311.023 102.115 313.705C102.115 316.386 103.661 318.182 106.183 318.182ZM103.462 312.932C103.553 311.574 104.513 310.364 106.047 310.364C107.501 310.364 108.433 311.455 108.433 312.932H103.462ZM115.382 318.182C117.314 318.182 118.587 317 118.814 315.455H117.473C117.223 316.409 116.428 316.977 115.382 316.977C113.791 316.977 112.768 315.659 112.768 313.636C112.768 311.659 113.814 310.364 115.382 310.364C116.564 310.364 117.268 311.091 117.473 311.886H118.814C118.587 310.25 117.2 309.159 115.359 309.159C112.996 309.159 111.428 311.023 111.428 313.682C111.428 316.295 112.928 318.182 115.382 318.182ZM124.57 309.273H122.706V307.182H121.365V309.273H120.047V310.409H121.365V315.864C121.365 317.386 122.592 318.114 123.729 318.114C124.229 318.114 124.547 318.023 124.729 317.955L124.456 316.75C124.342 316.773 124.161 316.818 123.865 316.818C123.274 316.818 122.706 316.636 122.706 315.5V310.409H124.57V309.273ZM126.587 318H127.928V312.477C127.928 311.295 128.859 310.432 130.132 310.432C130.49 310.432 130.859 310.5 130.95 310.523V309.159C130.797 309.148 130.445 309.136 130.246 309.136C129.2 309.136 128.291 309.727 127.973 310.591H127.882V309.273H126.587V318ZM135.82 318.182C138.183 318.182 139.774 316.386 139.774 313.682C139.774 310.955 138.183 309.159 135.82 309.159C133.456 309.159 131.865 310.955 131.865 313.682C131.865 316.386 133.456 318.182 135.82 318.182ZM135.82 316.977C134.024 316.977 133.206 315.432 133.206 313.682C133.206 311.932 134.024 310.364 135.82 310.364C137.615 310.364 138.433 311.932 138.433 313.682C138.433 315.432 137.615 316.977 135.82 316.977ZM135.206 308.091H136.388L138.161 305.455H136.592L135.206 308.091ZM143.162 312.75C143.162 311.227 144.105 310.364 145.389 310.364C146.634 310.364 147.389 311.176 147.389 312.545V318H148.73V312.455C148.73 310.227 147.543 309.159 145.776 309.159C144.457 309.159 143.639 309.75 143.23 310.636H143.116V309.273H141.821V318H143.162V312.75ZM151.18 318H152.521V309.273H151.18V318ZM151.862 307.818C152.385 307.818 152.817 307.409 152.817 306.909C152.817 306.409 152.385 306 151.862 306C151.339 306 150.908 306.409 150.908 306.909C150.908 307.409 151.339 307.818 151.862 307.818ZM158.523 318.182C160.455 318.182 161.727 317 161.955 315.455H160.614C160.364 316.409 159.568 316.977 158.523 316.977C156.932 316.977 155.909 315.659 155.909 313.636C155.909 311.659 156.955 310.364 158.523 310.364C159.705 310.364 160.409 311.091 160.614 311.886H161.955C161.727 310.25 160.341 309.159 158.5 309.159C156.136 309.159 154.568 311.023 154.568 313.682C154.568 316.295 156.068 318.182 158.523 318.182ZM167.46 318.182C169.824 318.182 171.415 316.386 171.415 313.682C171.415 310.955 169.824 309.159 167.46 309.159C165.097 309.159 163.506 310.955 163.506 313.682C163.506 316.386 165.097 318.182 167.46 318.182ZM167.46 316.977C165.665 316.977 164.847 315.432 164.847 313.682C164.847 311.932 165.665 310.364 167.46 310.364C169.256 310.364 170.074 311.932 170.074 313.682C170.074 315.432 169.256 316.977 167.46 316.977Z" fill="#FFFFFE"/>
<rect x="16.5" y="332.5" width="327" height="47" rx="3.5" fill="#FFFFFE"/>
<path d="M34.8182 350.364H33.4091V362H34.8182V350.364ZM38.8026 356.75C38.8026 355.227 39.7457 354.364 41.0298 354.364C42.2741 354.364 43.0298 355.176 43.0298 356.545V362H44.3707V356.455C44.3707 354.227 43.1832 353.159 41.4162 353.159C40.098 353.159 39.2798 353.75 38.8707 354.636H38.7571V353.273H37.4616V362H38.8026V356.75ZM50.3438 365.455C52.4347 365.455 54.1165 364.5 54.1165 362.25V353.273H52.821V354.659H52.6847C52.3892 354.205 51.8438 353.159 50.1392 353.159C47.9347 353.159 46.4119 354.909 46.4119 357.591C46.4119 360.318 48.0028 361.864 50.1165 361.864C51.821 361.864 52.3665 360.864 52.6619 360.386H52.7756V362.159C52.7756 363.614 51.7528 364.273 50.3438 364.273C48.7585 364.273 48.2017 363.438 47.8438 362.955L46.7756 363.705C47.321 364.619 48.3949 365.455 50.3438 365.455ZM50.2983 360.659C48.6165 360.659 47.7528 359.386 47.7528 357.568C47.7528 355.795 48.5938 354.364 50.2983 354.364C51.9347 354.364 52.7983 355.682 52.7983 357.568C52.7983 359.5 51.9119 360.659 50.2983 360.659ZM56.571 362H57.9119V356.477C57.9119 355.295 58.8438 354.432 60.1165 354.432C60.4744 354.432 60.8438 354.5 60.9347 354.523V353.159C60.7812 353.148 60.429 353.136 60.2301 353.136C59.1847 353.136 58.2756 353.727 57.9574 354.591H57.8665V353.273H56.571V362ZM65.9176 362.182C67.6903 362.182 68.9858 361.295 69.3949 359.977L68.0994 359.614C67.7585 360.523 66.9688 360.977 65.9176 360.977C64.3438 360.977 63.2585 359.96 63.196 358.091H69.5312V357.523C69.5312 354.273 67.5994 353.159 65.7812 353.159C63.4176 353.159 61.8494 355.023 61.8494 357.705C61.8494 360.386 63.3949 362.182 65.9176 362.182ZM63.196 356.932C63.2869 355.574 64.2472 354.364 65.7812 354.364C67.2358 354.364 68.1676 355.455 68.1676 356.932H63.196ZM77.7528 355.227C77.3324 353.989 76.3892 353.159 74.6619 353.159C72.821 353.159 71.4574 354.205 71.4574 355.682C71.4574 356.886 72.1733 357.693 73.7756 358.068L75.2301 358.409C76.1108 358.614 76.5256 359.034 76.5256 359.636C76.5256 360.386 75.7301 361 74.4801 361C73.3835 361 72.696 360.528 72.4574 359.591L71.1847 359.909C71.4972 361.392 72.7188 362.182 74.5028 362.182C76.5312 362.182 77.9119 361.074 77.9119 359.568C77.9119 358.352 77.1506 357.585 75.5938 357.205L74.2983 356.886C73.2642 356.631 72.7983 356.284 72.7983 355.614C72.7983 354.864 73.5938 354.318 74.6619 354.318C75.8324 354.318 76.3153 354.966 76.5483 355.568L77.7528 355.227ZM83.5895 362.182C85.3622 362.182 86.6577 361.295 87.0668 359.977L85.7713 359.614C85.4304 360.523 84.6406 360.977 83.5895 360.977C82.0156 360.977 80.9304 359.96 80.8679 358.091H87.2031V357.523C87.2031 354.273 85.2713 353.159 83.4531 353.159C81.0895 353.159 79.5213 355.023 79.5213 357.705C79.5213 360.386 81.0668 362.182 83.5895 362.182ZM80.8679 356.932C80.9588 355.574 81.919 354.364 83.4531 354.364C84.9077 354.364 85.8395 355.455 85.8395 356.932H80.8679ZM99.9247 355.227C99.5043 353.989 98.5611 353.159 96.8338 353.159C94.9929 353.159 93.6293 354.205 93.6293 355.682C93.6293 356.886 94.3452 357.693 95.9474 358.068L97.402 358.409C98.2827 358.614 98.6974 359.034 98.6974 359.636C98.6974 360.386 97.902 361 96.652 361C95.5554 361 94.8679 360.528 94.6293 359.591L93.3565 359.909C93.669 361.392 94.8906 362.182 96.6747 362.182C98.7031 362.182 100.084 361.074 100.084 359.568C100.084 358.352 99.3224 357.585 97.7656 357.205L96.4702 356.886C95.4361 356.631 94.9702 356.284 94.9702 355.614C94.9702 354.864 95.7656 354.318 96.8338 354.318C98.0043 354.318 98.4872 354.966 98.7202 355.568L99.9247 355.227ZM107.602 358.432C107.602 360.068 106.352 360.818 105.352 360.818C104.239 360.818 103.443 360 103.443 358.727V353.273H102.102V358.818C102.102 361.045 103.284 362.114 104.92 362.114C106.239 362.114 107.102 361.409 107.511 360.523H107.602V362H108.943V353.273H107.602V358.432ZM119.445 362.182C121.376 362.182 122.649 361 122.876 359.455H121.536C121.286 360.409 120.49 360.977 119.445 360.977C117.854 360.977 116.831 359.659 116.831 357.636C116.831 355.659 117.876 354.364 119.445 354.364C120.626 354.364 121.331 355.091 121.536 355.886H122.876C122.649 354.25 121.263 353.159 119.422 353.159C117.058 353.159 115.49 355.023 115.49 357.682C115.49 360.295 116.99 362.182 119.445 362.182ZM128.382 362.182C130.746 362.182 132.337 360.386 132.337 357.682C132.337 354.955 130.746 353.159 128.382 353.159C126.018 353.159 124.428 354.955 124.428 357.682C124.428 360.386 126.018 362.182 128.382 362.182ZM128.382 360.977C126.587 360.977 125.768 359.432 125.768 357.682C125.768 355.932 126.587 354.364 128.382 354.364C130.178 354.364 130.996 355.932 130.996 357.682C130.996 359.432 130.178 360.977 128.382 360.977ZM134.384 362H135.724V356.477C135.724 355.295 136.656 354.432 137.929 354.432C138.287 354.432 138.656 354.5 138.747 354.523V353.159C138.594 353.148 138.241 353.136 138.043 353.136C136.997 353.136 136.088 353.727 135.77 354.591H135.679V353.273H134.384V362ZM140.337 362H141.678V356.477C141.678 355.295 142.609 354.432 143.882 354.432C144.24 354.432 144.609 354.5 144.7 354.523V353.159C144.547 353.148 144.195 353.136 143.996 353.136C142.95 353.136 142.041 353.727 141.723 354.591H141.632V353.273H140.337V362ZM149.683 362.182C151.456 362.182 152.751 361.295 153.161 359.977L151.865 359.614C151.524 360.523 150.734 360.977 149.683 360.977C148.109 360.977 147.024 359.96 146.962 358.091H153.297V357.523C153.297 354.273 151.365 353.159 149.547 353.159C147.183 353.159 145.615 355.023 145.615 357.705C145.615 360.386 147.161 362.182 149.683 362.182ZM146.962 356.932C147.053 355.574 148.013 354.364 149.547 354.364C151.001 354.364 151.933 355.455 151.933 356.932H146.962ZM158.882 362.182C161.246 362.182 162.837 360.386 162.837 357.682C162.837 354.955 161.246 353.159 158.882 353.159C156.518 353.159 154.928 354.955 154.928 357.682C154.928 360.386 156.518 362.182 158.882 362.182ZM158.882 360.977C157.087 360.977 156.268 359.432 156.268 357.682C156.268 355.932 157.087 354.364 158.882 354.364C160.678 354.364 161.496 355.932 161.496 357.682C161.496 359.432 160.678 360.977 158.882 360.977ZM173.043 362.182C174.815 362.182 176.111 361.295 176.52 359.977L175.224 359.614C174.884 360.523 174.094 360.977 173.043 360.977C171.469 360.977 170.384 359.96 170.321 358.091H176.656V357.523C176.656 354.273 174.724 353.159 172.906 353.159C170.543 353.159 168.974 355.023 168.974 357.705C168.974 360.386 170.52 362.182 173.043 362.182ZM170.321 356.932C170.412 355.574 171.372 354.364 172.906 354.364C174.361 354.364 175.293 355.455 175.293 356.932H170.321ZM180.037 350.364H178.696V362H180.037V350.364ZM186.152 362.182C187.925 362.182 189.22 361.295 189.629 359.977L188.334 359.614C187.993 360.523 187.203 360.977 186.152 360.977C184.578 360.977 183.493 359.96 183.43 358.091H189.766V357.523C189.766 354.273 187.834 353.159 186.016 353.159C183.652 353.159 182.084 355.023 182.084 357.705C182.084 360.386 183.629 362.182 186.152 362.182ZM183.43 356.932C183.521 355.574 184.482 354.364 186.016 354.364C187.47 354.364 188.402 355.455 188.402 356.932H183.43ZM195.351 362.182C197.283 362.182 198.555 361 198.783 359.455H197.442C197.192 360.409 196.396 360.977 195.351 360.977C193.76 360.977 192.737 359.659 192.737 357.636C192.737 355.659 193.783 354.364 195.351 354.364C196.533 354.364 197.237 355.091 197.442 355.886H198.783C198.555 354.25 197.169 353.159 195.328 353.159C192.964 353.159 191.396 355.023 191.396 357.682C191.396 360.295 192.896 362.182 195.351 362.182ZM204.538 353.273H202.675V351.182H201.334V353.273H200.016V354.409H201.334V359.864C201.334 361.386 202.561 362.114 203.697 362.114C204.197 362.114 204.516 362.023 204.697 361.955L204.425 360.75C204.311 360.773 204.129 360.818 203.834 360.818C203.243 360.818 202.675 360.636 202.675 359.5V354.409H204.538V353.273ZM206.555 362H207.896V356.477C207.896 355.295 208.828 354.432 210.101 354.432C210.459 354.432 210.828 354.5 210.919 354.523V353.159C210.766 353.148 210.413 353.136 210.214 353.136C209.169 353.136 208.26 353.727 207.942 354.591H207.851V353.273H206.555V362ZM215.788 362.182C218.152 362.182 219.743 360.386 219.743 357.682C219.743 354.955 218.152 353.159 215.788 353.159C213.425 353.159 211.834 354.955 211.834 357.682C211.834 360.386 213.425 362.182 215.788 362.182ZM215.788 360.977C213.993 360.977 213.175 359.432 213.175 357.682C213.175 355.932 213.993 354.364 215.788 354.364C217.584 354.364 218.402 355.932 218.402 357.682C218.402 359.432 217.584 360.977 215.788 360.977ZM215.175 352.091H216.357L218.129 349.455H216.561L215.175 352.091ZM223.131 356.75C223.131 355.227 224.074 354.364 225.358 354.364C226.602 354.364 227.358 355.176 227.358 356.545V362H228.699V356.455C228.699 354.227 227.511 353.159 225.744 353.159C224.426 353.159 223.608 353.75 223.199 354.636H223.085V353.273H221.79V362H223.131V356.75ZM231.149 362H232.49V353.273H231.149V362ZM231.831 351.818C232.354 351.818 232.786 351.409 232.786 350.909C232.786 350.409 232.354 350 231.831 350C231.308 350 230.876 350.409 230.876 350.909C230.876 351.409 231.308 351.818 231.831 351.818ZM238.491 362.182C240.423 362.182 241.696 361 241.923 359.455H240.582C240.332 360.409 239.537 360.977 238.491 360.977C236.901 360.977 235.878 359.659 235.878 357.636C235.878 355.659 236.923 354.364 238.491 354.364C239.673 354.364 240.378 355.091 240.582 355.886H241.923C241.696 354.25 240.31 353.159 238.469 353.159C236.105 353.159 234.537 355.023 234.537 357.682C234.537 360.295 236.037 362.182 238.491 362.182ZM247.429 362.182C249.793 362.182 251.384 360.386 251.384 357.682C251.384 354.955 249.793 353.159 247.429 353.159C245.065 353.159 243.474 354.955 243.474 357.682C243.474 360.386 245.065 362.182 247.429 362.182ZM247.429 360.977C245.634 360.977 244.815 359.432 244.815 357.682C244.815 355.932 245.634 354.364 247.429 354.364C249.224 354.364 250.043 355.932 250.043 357.682C250.043 359.432 249.224 360.977 247.429 360.977Z" fill="#72757E"/>
<rect x="16.5" y="332.5" width="327" height="47" rx="3.5" stroke="#72757E"/>
<path d="M77.6364 424.568H76.2727V424.636C76.25 426.045 75.8864 426.659 74.8864 427.284C73.8864 427.892 73.2955 428.767 73.2955 430.023C73.2955 431.795 74.5909 433.091 76.5909 433.091C78.4318 433.091 79.892 431.955 79.9773 430.023H78.5455C78.4602 431.364 77.5227 431.909 76.5909 431.909C75.5227 431.909 74.6591 431.205 74.6591 430.091C74.6591 429.188 75.1761 428.54 75.8409 428.136C76.9545 427.46 77.6193 426.801 77.6364 424.636V424.568ZM76.9091 421.205C76.3466 421.205 75.8864 421.665 75.8864 422.227C75.8864 422.79 76.3466 423.25 76.9091 423.25C77.4716 423.25 77.9318 422.79 77.9318 422.227C77.9318 421.665 77.4716 421.205 76.9091 421.205ZM88.3821 421.273H89.7457C89.6832 419.517 88.0639 418.205 85.8139 418.205C83.5866 418.205 81.8366 419.5 81.8366 421.455C81.8366 423.023 82.973 423.955 84.7912 424.477L86.223 424.886C87.4503 425.227 88.5412 425.659 88.5412 426.818C88.5412 428.091 87.3139 428.932 85.7003 428.932C84.3139 428.932 83.0866 428.318 82.973 427H81.5185C81.6548 428.909 83.2003 430.205 85.7003 430.205C88.3821 430.205 89.9048 428.727 89.9048 426.841C89.9048 424.659 87.8366 423.955 86.6321 423.636L85.4503 423.318C84.5866 423.091 83.2003 422.636 83.2003 421.386C83.2003 420.273 84.223 419.455 85.7685 419.455C87.1776 419.455 88.2457 420.125 88.3821 421.273ZM95.6989 430.182C97.4716 430.182 98.767 429.295 99.1761 427.977L97.8807 427.614C97.5398 428.523 96.75 428.977 95.6989 428.977C94.125 428.977 93.0398 427.96 92.9773 426.091H99.3125V425.523C99.3125 422.273 97.3807 421.159 95.5625 421.159C93.1989 421.159 91.6307 423.023 91.6307 425.705C91.6307 428.386 93.1761 430.182 95.6989 430.182ZM92.9773 424.932C93.0682 423.574 94.0284 422.364 95.5625 422.364C97.017 422.364 97.9489 423.455 97.9489 424.932H92.9773ZM109.648 421.273H107.784V419.182H106.443V421.273H105.125V422.409H106.443V427.864C106.443 429.386 107.67 430.114 108.807 430.114C109.307 430.114 109.625 430.023 109.807 429.955L109.534 428.75C109.42 428.773 109.239 428.818 108.943 428.818C108.352 428.818 107.784 428.636 107.784 427.5V422.409H109.648V421.273ZM115.23 430.182C117.003 430.182 118.298 429.295 118.707 427.977L117.412 427.614C117.071 428.523 116.281 428.977 115.23 428.977C113.656 428.977 112.571 427.96 112.509 426.091H118.844V425.523C118.844 422.273 116.912 421.159 115.094 421.159C112.73 421.159 111.162 423.023 111.162 425.705C111.162 428.386 112.707 430.182 115.23 430.182ZM112.509 424.932C112.599 423.574 113.56 422.364 115.094 422.364C116.548 422.364 117.48 423.455 117.48 424.932H112.509ZM128.929 430.182C131.293 430.182 132.884 428.386 132.884 425.682C132.884 422.955 131.293 421.159 128.929 421.159C126.565 421.159 124.974 422.955 124.974 425.682C124.974 428.386 126.565 430.182 128.929 430.182ZM128.929 428.977C127.134 428.977 126.315 427.432 126.315 425.682C126.315 423.932 127.134 422.364 128.929 422.364C130.724 422.364 131.543 423.932 131.543 425.682C131.543 427.432 130.724 428.977 128.929 428.977ZM136.271 418.364H134.93V430H136.271V418.364ZM145.864 421.273H144.409L142 428.227H141.909L139.5 421.273H138.045L141.273 430H142.636L145.864 421.273ZM147.634 430H148.974V421.273H147.634V430ZM148.315 419.818C148.838 419.818 149.27 419.409 149.27 418.909C149.27 418.409 148.838 418 148.315 418C147.793 418 147.361 418.409 147.361 418.909C147.361 419.409 147.793 419.818 148.315 419.818ZM154.726 430.182C156.408 430.182 156.976 429.136 157.271 428.659H157.43V430H158.726V418.364H157.385V422.659H157.271C156.976 422.205 156.453 421.159 154.749 421.159C152.544 421.159 151.021 422.909 151.021 425.659C151.021 428.432 152.544 430.182 154.726 430.182ZM154.908 428.977C153.226 428.977 152.362 427.5 152.362 425.636C152.362 423.795 153.203 422.364 154.908 422.364C156.544 422.364 157.408 423.682 157.408 425.636C157.408 427.614 156.521 428.977 154.908 428.977ZM164.913 430.182C167.277 430.182 168.868 428.386 168.868 425.682C168.868 422.955 167.277 421.159 164.913 421.159C162.55 421.159 160.959 422.955 160.959 425.682C160.959 428.386 162.55 430.182 164.913 430.182ZM164.913 428.977C163.118 428.977 162.3 427.432 162.3 425.682C162.3 423.932 163.118 422.364 164.913 422.364C166.709 422.364 167.527 423.932 167.527 425.682C167.527 427.432 166.709 428.977 164.913 428.977ZM164.3 420.091H165.482L167.254 417.455H165.686L164.3 420.091ZM179.21 421.273H177.347V419.182H176.006V421.273H174.688V422.409H176.006V427.864C176.006 429.386 177.233 430.114 178.369 430.114C178.869 430.114 179.188 430.023 179.369 429.955L179.097 428.75C178.983 428.773 178.801 428.818 178.506 428.818C177.915 428.818 177.347 428.636 177.347 427.5V422.409H179.21V421.273ZM186.727 426.432C186.727 428.068 185.477 428.818 184.477 428.818C183.364 428.818 182.568 428 182.568 426.727V421.273H181.227V426.818C181.227 429.045 182.409 430.114 184.045 430.114C185.364 430.114 186.227 429.409 186.636 428.523H186.727V430H188.068V421.273H186.727V426.432ZM198.57 430.182C200.501 430.182 201.774 429 202.001 427.455H200.661C200.411 428.409 199.615 428.977 198.57 428.977C196.979 428.977 195.956 427.659 195.956 425.636C195.956 423.659 197.001 422.364 198.57 422.364C199.751 422.364 200.456 423.091 200.661 423.886H202.001C201.774 422.25 200.388 421.159 198.547 421.159C196.183 421.159 194.615 423.023 194.615 425.682C194.615 428.295 196.115 430.182 198.57 430.182ZM207.507 430.182C209.871 430.182 211.462 428.386 211.462 425.682C211.462 422.955 209.871 421.159 207.507 421.159C205.143 421.159 203.553 422.955 203.553 425.682C203.553 428.386 205.143 430.182 207.507 430.182ZM207.507 428.977C205.712 428.977 204.893 427.432 204.893 425.682C204.893 423.932 205.712 422.364 207.507 422.364C209.303 422.364 210.121 423.932 210.121 425.682C210.121 427.432 209.303 428.977 207.507 428.977ZM214.849 424.75C214.849 423.227 215.793 422.364 217.077 422.364C218.321 422.364 219.077 423.176 219.077 424.545V430H220.418V424.455C220.418 422.227 219.23 421.159 217.463 421.159C216.145 421.159 215.327 421.75 214.918 422.636H214.804V421.273H213.509V430H214.849V424.75ZM226.663 421.273H224.8V419.182H223.459V421.273H222.141V422.409H223.459V427.864C223.459 429.386 224.686 430.114 225.822 430.114C226.322 430.114 226.641 430.023 226.822 429.955L226.55 428.75C226.436 428.773 226.254 428.818 225.959 428.818C225.368 428.818 224.8 428.636 224.8 427.5V422.409H226.663V421.273ZM228.68 430H230.021V424.477C230.021 423.295 230.953 422.432 232.226 422.432C232.584 422.432 232.953 422.5 233.044 422.523V421.159C232.891 421.148 232.538 421.136 232.339 421.136C231.294 421.136 230.385 421.727 230.067 422.591H229.976V421.273H228.68V430ZM237.202 430.205C238.724 430.205 239.52 429.386 239.793 428.818H239.861V430H241.202V424.25C241.202 421.477 239.088 421.159 237.974 421.159C236.656 421.159 235.156 421.614 234.474 423.205L235.747 423.659C236.043 423.023 236.741 422.341 238.02 422.341C239.253 422.341 239.861 422.994 239.861 424.114V424.159C239.861 424.807 239.202 424.75 237.611 424.955C235.991 425.165 234.224 425.523 234.224 427.523C234.224 429.227 235.543 430.205 237.202 430.205ZM237.406 429C236.338 429 235.565 428.523 235.565 427.591C235.565 426.568 236.497 426.25 237.543 426.114C238.111 426.045 239.634 425.886 239.861 425.614V426.841C239.861 427.932 238.997 429 237.406 429ZM249.831 423.227C249.411 421.989 248.467 421.159 246.74 421.159C244.899 421.159 243.536 422.205 243.536 423.682C243.536 424.886 244.251 425.693 245.854 426.068L247.308 426.409C248.189 426.614 248.604 427.034 248.604 427.636C248.604 428.386 247.808 429 246.558 429C245.462 429 244.774 428.528 244.536 427.591L243.263 427.909C243.575 429.392 244.797 430.182 246.581 430.182C248.609 430.182 249.99 429.074 249.99 427.568C249.99 426.352 249.229 425.585 247.672 425.205L246.376 424.886C245.342 424.631 244.876 424.284 244.876 423.614C244.876 422.864 245.672 422.318 246.74 422.318C247.911 422.318 248.393 422.966 248.626 423.568L249.831 423.227ZM255.668 430.182C257.44 430.182 258.736 429.295 259.145 427.977L257.849 427.614C257.509 428.523 256.719 428.977 255.668 428.977C254.094 428.977 253.009 427.96 252.946 426.091H259.281V425.523C259.281 422.273 257.349 421.159 255.531 421.159C253.168 421.159 251.599 423.023 251.599 425.705C251.599 428.386 253.145 430.182 255.668 430.182ZM252.946 424.932C253.037 423.574 253.997 422.364 255.531 422.364C256.986 422.364 257.918 423.455 257.918 424.932H252.946ZM262.662 424.75C262.662 423.227 263.605 422.364 264.889 422.364C266.134 422.364 266.889 423.176 266.889 424.545V430H268.23V424.455C268.23 422.227 267.043 421.159 265.276 421.159C263.957 421.159 263.139 421.75 262.73 422.636H262.616V421.273H261.321V430H262.662V424.75ZM263.026 420.227C263.026 419.75 263.344 419.364 263.776 419.364C264.639 419.364 264.798 420.091 265.844 420.091C266.821 420.091 267.571 419.341 267.571 418.159L266.548 418.068C266.548 418.545 266.207 418.932 265.776 418.932C264.957 418.932 264.571 418.205 263.707 418.205C262.73 418.205 261.98 419.023 261.98 420.182L263.026 420.227ZM273.249 430.205C274.771 430.205 275.567 429.386 275.839 428.818H275.908V430H277.249V424.25C277.249 421.477 275.135 421.159 274.021 421.159C272.703 421.159 271.203 421.614 270.521 423.205L271.794 423.659C272.089 423.023 272.788 422.341 274.067 422.341C275.3 422.341 275.908 422.994 275.908 424.114V424.159C275.908 424.807 275.249 424.75 273.658 424.955C272.038 425.165 270.271 425.523 270.271 427.523C270.271 429.227 271.589 430.205 273.249 430.205ZM273.453 429C272.385 429 271.612 428.523 271.612 427.591C271.612 426.568 272.544 426.25 273.589 426.114C274.158 426.045 275.68 425.886 275.908 425.614V426.841C275.908 427.932 275.044 429 273.453 429ZM281.446 426.727H282.81V426.659C282.832 425.25 283.196 424.636 284.196 424.011C285.196 423.403 285.787 422.528 285.787 421.273C285.787 419.5 284.491 418.205 282.491 418.205C280.651 418.205 279.19 419.341 279.105 421.273H280.537C280.622 419.932 281.56 419.386 282.491 419.386C283.56 419.386 284.423 420.091 284.423 421.205C284.423 422.108 283.906 422.756 283.241 423.159C282.128 423.835 281.463 424.494 281.446 426.659V426.727ZM282.173 430.091C282.736 430.091 283.196 429.631 283.196 429.068C283.196 428.506 282.736 428.045 282.173 428.045C281.611 428.045 281.151 428.506 281.151 429.068C281.151 429.631 281.611 430.091 282.173 430.091Z" fill="#2CB67D"/>
<path d="M72.5 433.182H286.582V434.273H72.5V433.182Z" fill="#2CB67D"/>
<path d="M39.6364 480.568H38.2727V480.636C38.25 482.045 37.8864 482.659 36.8864 483.284C35.8864 483.892 35.2955 484.767 35.2955 486.023C35.2955 487.795 36.5909 489.091 38.5909 489.091C40.4318 489.091 41.892 487.955 41.9773 486.023H40.5455C40.4602 487.364 39.5227 487.909 38.5909 487.909C37.5227 487.909 36.6591 487.205 36.6591 486.091C36.6591 485.188 37.1761 484.54 37.8409 484.136C38.9545 483.46 39.6193 482.801 39.6364 480.636V480.568ZM38.9091 477.205C38.3466 477.205 37.8864 477.665 37.8864 478.227C37.8864 478.79 38.3466 479.25 38.9091 479.25C39.4716 479.25 39.9318 478.79 39.9318 478.227C39.9318 477.665 39.4716 477.205 38.9091 477.205ZM44.4957 486L45.6662 482.705H50.3707L51.5412 486H53.0185L48.7457 474.364H47.2912L43.0185 486H44.4957ZM46.1094 481.455L47.973 476.205H48.0639L49.9276 481.455H46.1094ZM60.1491 482.432C60.1491 484.068 58.8991 484.818 57.8991 484.818C56.7855 484.818 55.9901 484 55.9901 482.727V477.273H54.6491V482.818C54.6491 485.045 55.831 486.114 57.4673 486.114C58.7855 486.114 59.6491 485.409 60.0582 484.523H60.1491V486H61.4901V477.273H60.1491V482.432ZM57.4673 476.091H58.6491L60.4219 473.455H58.8537L57.4673 476.091ZM65.2869 480.75C65.2869 479.227 66.2301 478.364 67.5142 478.364C68.7585 478.364 69.5142 479.176 69.5142 480.545V486H70.8551V480.455C70.8551 478.227 69.6676 477.159 67.9006 477.159C66.5824 477.159 65.7642 477.75 65.3551 478.636H65.2415V477.273H63.946V486H65.2869V480.75ZM79.1463 480.75C79.1463 479.227 80.0895 478.364 81.3736 478.364C82.6179 478.364 83.3736 479.176 83.3736 480.545V486H84.7145V480.455C84.7145 478.227 83.527 477.159 81.7599 477.159C80.4418 477.159 79.6236 477.75 79.2145 478.636H79.1009V477.273H77.8054V486H79.1463V480.75ZM90.7102 486.182C93.0739 486.182 94.6648 484.386 94.6648 481.682C94.6648 478.955 93.0739 477.159 90.7102 477.159C88.3466 477.159 86.7557 478.955 86.7557 481.682C86.7557 484.386 88.3466 486.182 90.7102 486.182ZM90.7102 484.977C88.9148 484.977 88.0966 483.432 88.0966 481.682C88.0966 479.932 88.9148 478.364 90.7102 478.364C92.5057 478.364 93.3239 479.932 93.3239 481.682C93.3239 483.432 92.5057 484.977 90.7102 484.977ZM105.007 477.273H103.143V475.182H101.803V477.273H100.484V478.409H101.803V483.864C101.803 485.386 103.03 486.114 104.166 486.114C104.666 486.114 104.984 486.023 105.166 485.955L104.893 484.75C104.78 484.773 104.598 484.818 104.303 484.818C103.712 484.818 103.143 484.636 103.143 483.5V478.409H105.007V477.273ZM107.024 486H108.365V477.273H107.024V486ZM107.706 475.818C108.229 475.818 108.661 475.409 108.661 474.909C108.661 474.409 108.229 474 107.706 474C107.183 474 106.751 474.409 106.751 474.909C106.751 475.409 107.183 475.818 107.706 475.818ZM114.48 486.182C116.253 486.182 117.548 485.295 117.957 483.977L116.662 483.614C116.321 484.523 115.531 484.977 114.48 484.977C112.906 484.977 111.821 483.96 111.759 482.091H118.094V481.523C118.094 478.273 116.162 477.159 114.344 477.159C111.98 477.159 110.412 479.023 110.412 481.705C110.412 484.386 111.957 486.182 114.48 486.182ZM111.759 480.932C111.849 479.574 112.81 478.364 114.344 478.364C115.798 478.364 116.73 479.455 116.73 480.932H111.759ZM121.474 480.75C121.474 479.227 122.418 478.364 123.702 478.364C124.946 478.364 125.702 479.176 125.702 480.545V486H127.043V480.455C127.043 478.227 125.855 477.159 124.088 477.159C122.77 477.159 121.952 477.75 121.543 478.636H121.429V477.273H120.134V486H121.474V480.75ZM133.152 486.182C134.925 486.182 136.22 485.295 136.629 483.977L135.334 483.614C134.993 484.523 134.203 484.977 133.152 484.977C131.578 484.977 130.493 483.96 130.43 482.091H136.766V481.523C136.766 478.273 134.834 477.159 133.016 477.159C130.652 477.159 129.084 479.023 129.084 481.705C129.084 484.386 130.629 486.182 133.152 486.182ZM130.43 480.932C130.521 479.574 131.482 478.364 133.016 478.364C134.47 478.364 135.402 479.455 135.402 480.932H130.43ZM144.987 479.227C144.567 477.989 143.624 477.159 141.896 477.159C140.055 477.159 138.692 478.205 138.692 479.682C138.692 480.886 139.408 481.693 141.01 482.068L142.464 482.409C143.345 482.614 143.76 483.034 143.76 483.636C143.76 484.386 142.964 485 141.714 485C140.618 485 139.93 484.528 139.692 483.591L138.419 483.909C138.732 485.392 139.953 486.182 141.737 486.182C143.766 486.182 145.146 485.074 145.146 483.568C145.146 482.352 144.385 481.585 142.828 481.205L141.533 480.886C140.499 480.631 140.033 480.284 140.033 479.614C140.033 478.864 140.828 478.318 141.896 478.318C143.067 478.318 143.55 478.966 143.783 479.568L144.987 479.227ZM157.165 482.432C157.165 484.068 155.915 484.818 154.915 484.818C153.801 484.818 153.006 484 153.006 482.727V477.273H151.665V482.818C151.665 485.045 152.847 486.114 154.483 486.114C155.801 486.114 156.665 485.409 157.074 484.523H157.165V486H158.506V477.273H157.165V482.432ZM162.303 480.75C162.303 479.227 163.246 478.364 164.53 478.364C165.774 478.364 166.53 479.176 166.53 480.545V486H167.871V480.455C167.871 478.227 166.683 477.159 164.916 477.159C163.598 477.159 162.78 477.75 162.371 478.636H162.257V477.273H160.962V486H162.303V480.75ZM172.889 486.205C174.412 486.205 175.207 485.386 175.48 484.818H175.548V486H176.889V480.25C176.889 477.477 174.776 477.159 173.662 477.159C172.344 477.159 170.844 477.614 170.162 479.205L171.435 479.659C171.73 479.023 172.429 478.341 173.707 478.341C174.94 478.341 175.548 478.994 175.548 480.114V480.159C175.548 480.807 174.889 480.75 173.298 480.955C171.679 481.165 169.912 481.523 169.912 483.523C169.912 485.227 171.23 486.205 172.889 486.205ZM173.094 485C172.026 485 171.253 484.523 171.253 483.591C171.253 482.568 172.185 482.25 173.23 482.114C173.798 482.045 175.321 481.886 175.548 481.614V482.841C175.548 483.932 174.685 485 173.094 485ZM187.382 486.182C189.314 486.182 190.587 485 190.814 483.455H189.473C189.223 484.409 188.428 484.977 187.382 484.977C185.791 484.977 184.768 483.659 184.768 481.636C184.768 479.659 185.814 478.364 187.382 478.364C188.564 478.364 189.268 479.091 189.473 479.886H190.814C190.587 478.25 189.2 477.159 187.359 477.159C184.996 477.159 183.428 479.023 183.428 481.682C183.428 484.295 184.928 486.182 187.382 486.182ZM198.274 482.432C198.274 484.068 197.024 484.818 196.024 484.818C194.911 484.818 194.115 484 194.115 482.727V477.273H192.774V482.818C192.774 485.045 193.956 486.114 195.592 486.114C196.911 486.114 197.774 485.409 198.183 484.523H198.274V486H199.615V477.273H198.274V482.432ZM205.73 486.182C207.503 486.182 208.798 485.295 209.207 483.977L207.912 483.614C207.571 484.523 206.781 484.977 205.73 484.977C204.156 484.977 203.071 483.96 203.009 482.091H209.344V481.523C209.344 478.273 207.412 477.159 205.594 477.159C203.23 477.159 201.662 479.023 201.662 481.705C201.662 484.386 203.207 486.182 205.73 486.182ZM203.009 480.932C203.099 479.574 204.06 478.364 205.594 478.364C207.048 478.364 207.98 479.455 207.98 480.932H203.009ZM212.724 480.75C212.724 479.227 213.668 478.364 214.952 478.364C216.196 478.364 216.952 479.176 216.952 480.545V486H218.293V480.455C218.293 478.227 217.105 477.159 215.338 477.159C214.02 477.159 213.202 477.75 212.793 478.636H212.679V477.273H211.384V486H212.724V480.75ZM224.538 477.273H222.675V475.182H221.334V477.273H220.016V478.409H221.334V483.864C221.334 485.386 222.561 486.114 223.697 486.114C224.197 486.114 224.516 486.023 224.697 485.955L224.425 484.75C224.311 484.773 224.129 484.818 223.834 484.818C223.243 484.818 222.675 484.636 222.675 483.5V478.409H224.538V477.273ZM229.124 486.205C230.646 486.205 231.442 485.386 231.714 484.818H231.783V486H233.124V480.25C233.124 477.477 231.01 477.159 229.896 477.159C228.578 477.159 227.078 477.614 226.396 479.205L227.669 479.659C227.964 479.023 228.663 478.341 229.942 478.341C231.175 478.341 231.783 478.994 231.783 480.114V480.159C231.783 480.807 231.124 480.75 229.533 480.955C227.913 481.165 226.146 481.523 226.146 483.523C226.146 485.227 227.464 486.205 229.124 486.205ZM229.328 485C228.26 485 227.487 484.523 227.487 483.591C227.487 482.568 228.419 482.25 229.464 482.114C230.033 482.045 231.555 481.886 231.783 481.614V482.841C231.783 483.932 230.919 485 229.328 485ZM237.321 482.727H238.685V482.659C238.707 481.25 239.071 480.636 240.071 480.011C241.071 479.403 241.662 478.528 241.662 477.273C241.662 475.5 240.366 474.205 238.366 474.205C236.526 474.205 235.065 475.341 234.98 477.273H236.412C236.497 475.932 237.435 475.386 238.366 475.386C239.435 475.386 240.298 476.091 240.298 477.205C240.298 478.108 239.781 478.756 239.116 479.159C238.003 479.835 237.338 480.494 237.321 482.659V482.727ZM238.048 486.091C238.611 486.091 239.071 485.631 239.071 485.068C239.071 484.506 238.611 484.045 238.048 484.045C237.486 484.045 237.026 484.506 237.026 485.068C237.026 485.631 237.486 486.091 238.048 486.091Z" fill="#FFFFFE"/>
<path d="M249.771 474.364H248.362V486H249.771V474.364ZM253.756 480.75C253.756 479.227 254.699 478.364 255.983 478.364C257.227 478.364 257.983 479.176 257.983 480.545V486H259.324V480.455C259.324 478.227 258.136 477.159 256.369 477.159C255.051 477.159 254.233 477.75 253.824 478.636H253.71V477.273H252.415V486H253.756V480.75ZM267.956 479.227C267.536 477.989 266.592 477.159 264.865 477.159C263.024 477.159 261.661 478.205 261.661 479.682C261.661 480.886 262.376 481.693 263.979 482.068L265.433 482.409C266.314 482.614 266.729 483.034 266.729 483.636C266.729 484.386 265.933 485 264.683 485C263.587 485 262.899 484.528 262.661 483.591L261.388 483.909C261.7 485.392 262.922 486.182 264.706 486.182C266.734 486.182 268.115 485.074 268.115 483.568C268.115 482.352 267.354 481.585 265.797 481.205L264.501 480.886C263.467 480.631 263.001 480.284 263.001 479.614C263.001 478.864 263.797 478.318 264.865 478.318C266.036 478.318 266.518 478.966 266.751 479.568L267.956 479.227ZM273.679 486.182C275.611 486.182 276.884 485 277.111 483.455H275.77C275.52 484.409 274.724 484.977 273.679 484.977C272.088 484.977 271.065 483.659 271.065 481.636C271.065 479.659 272.111 478.364 273.679 478.364C274.861 478.364 275.565 479.091 275.77 479.886H277.111C276.884 478.25 275.497 477.159 273.656 477.159C271.293 477.159 269.724 479.023 269.724 481.682C269.724 484.295 271.224 486.182 273.679 486.182ZM279.071 486H280.412V480.477C280.412 479.295 281.344 478.432 282.616 478.432C282.974 478.432 283.344 478.5 283.435 478.523V477.159C283.281 477.148 282.929 477.136 282.73 477.136C281.685 477.136 280.776 477.727 280.457 478.591H280.366V477.273H279.071V486ZM285.024 486H286.365V477.273H285.024V486ZM285.706 475.818C286.229 475.818 286.661 475.409 286.661 474.909C286.661 474.409 286.229 474 285.706 474C285.183 474 284.751 474.409 284.751 474.909C284.751 475.409 285.183 475.818 285.706 475.818ZM289.003 486H290.298V484.659H290.457C290.753 485.136 291.321 486.182 293.003 486.182C295.185 486.182 296.707 484.432 296.707 481.659C296.707 478.909 295.185 477.159 292.98 477.159C291.276 477.159 290.753 478.205 290.457 478.659H290.344V474.364H289.003V486ZM290.321 481.636C290.321 479.682 291.185 478.364 292.821 478.364C294.526 478.364 295.366 479.795 295.366 481.636C295.366 483.5 294.503 484.977 292.821 484.977C291.207 484.977 290.321 483.614 290.321 481.636ZM298.759 486H300.099V477.273H298.759V486ZM299.44 475.818C299.963 475.818 300.395 475.409 300.395 474.909C300.395 474.409 299.963 474 299.44 474C298.918 474 298.486 474.409 298.486 474.909C298.486 475.409 298.918 475.818 299.44 475.818ZM302.555 486H303.896V480.477C303.896 479.295 304.828 478.432 306.101 478.432C306.459 478.432 306.828 478.5 306.919 478.523V477.159C306.766 477.148 306.413 477.136 306.214 477.136C305.169 477.136 304.26 477.727 303.942 478.591H303.851V477.273H302.555V486ZM314.69 479.227C314.27 477.989 313.327 477.159 311.599 477.159C309.759 477.159 308.395 478.205 308.395 479.682C308.395 480.886 309.111 481.693 310.713 482.068L312.168 482.409C313.048 482.614 313.463 483.034 313.463 483.636C313.463 484.386 312.668 485 311.418 485C310.321 485 309.634 484.528 309.395 483.591L308.122 483.909C308.435 485.392 309.656 486.182 311.44 486.182C313.469 486.182 314.849 485.074 314.849 483.568C314.849 482.352 314.088 481.585 312.531 481.205L311.236 480.886C310.202 480.631 309.736 480.284 309.736 479.614C309.736 478.864 310.531 478.318 311.599 478.318C312.77 478.318 313.253 478.966 313.486 479.568L314.69 479.227ZM320.527 486.182C322.3 486.182 323.595 485.295 324.004 483.977L322.709 483.614C322.368 484.523 321.578 484.977 320.527 484.977C318.953 484.977 317.868 483.96 317.805 482.091H324.141V481.523C324.141 478.273 322.209 477.159 320.391 477.159C318.027 477.159 316.459 479.023 316.459 481.705C316.459 484.386 318.004 486.182 320.527 486.182ZM317.805 480.932C317.896 479.574 318.857 478.364 320.391 478.364C321.845 478.364 322.777 479.455 322.777 480.932H317.805Z" fill="#2CB67D"/>
<path fill-rule="evenodd" clip-rule="evenodd" d="M220 52.0002C220 40.9618 211.038 32 200 32H160C148.962 32 140 40.9618 140 52.0002V91.9998C140 103.038 148.962 112 160 112H200C211.038 112 220 103.038 220 91.9998V52.0002Z" fill="#873DEC"/>
<path d="M159.318 49.409C159.318 49.697 159.071 50.273 158.66 51.2193C158.207 52.1656 157.837 52.9062 157.631 53.441C156.726 55.5805 156.068 57.5142 155.698 59.2833C155.327 61.0524 155.122 62.9039 155.122 64.7964C155.122 66.5244 155.286 68.2524 155.615 69.8981C155.903 71.5027 156.397 73.1484 157.055 74.7941C157.384 75.6581 157.878 76.7278 158.454 77.921C159.03 79.1141 159.318 79.8547 159.318 80.1427C159.318 80.4307 159.236 80.6775 159.112 80.8421C158.989 81.0067 158.824 81.0889 158.619 81.0889C158.207 81.0889 157.755 80.8832 157.22 80.4307C156.726 79.9781 156.109 79.2787 155.451 78.3324C154.011 76.2752 152.941 74.1358 152.242 71.873C151.542 69.6101 151.172 67.265 151.172 64.7964C151.172 62.5336 151.46 60.353 152.036 58.2959C152.653 56.2387 153.517 54.2639 154.71 52.3302C155.492 51.0548 156.191 50.1085 156.85 49.4502C157.508 48.833 158.084 48.5039 158.619 48.5039C158.824 48.5039 158.989 48.5862 159.112 48.7508C159.236 48.9153 159.318 49.121 159.318 49.409Z" fill="white"/>
<path d="M200.556 80.1427C200.556 79.8547 200.803 79.2787 201.256 78.3735C201.708 77.4272 202.038 76.7278 202.284 76.1518C203.19 74.0124 203.848 72.0375 204.218 70.2684C204.63 68.4993 204.794 66.689 204.794 64.7964C204.794 63.0684 204.63 61.3816 204.3 59.7359C203.971 58.0902 203.478 56.4445 202.819 54.7576C202.449 53.8936 201.996 52.8239 201.42 51.6308C200.844 50.4376 200.556 49.697 200.556 49.409C200.556 49.121 200.639 48.9153 200.762 48.7508C200.886 48.5862 201.091 48.5039 201.297 48.5039C201.75 48.5039 202.202 48.7096 202.696 49.1622C203.19 49.5736 203.807 50.273 204.465 51.2193C205.905 53.2765 206.975 55.4159 207.674 57.6787C208.374 59.9416 208.744 62.3279 208.744 64.7964C208.744 67.0593 208.456 69.1987 207.839 71.297C207.263 73.3541 206.358 75.329 205.164 77.2627C204.342 78.5792 203.601 79.5255 202.984 80.1427C202.367 80.7598 201.791 81.0889 201.297 81.0889C201.091 81.0889 200.886 81.0067 200.762 80.8009C200.639 80.6364 200.556 80.4307 200.556 80.1427Z" fill="white"/>
<path d="M167.994 70.4682C169.572 70.4682 170.851 69.189 170.851 67.611C170.851 66.0331 169.572 64.7539 167.994 64.7539C166.416 64.7539 165.137 66.0331 165.137 67.611C165.137 69.189 166.416 70.4682 167.994 70.4682Z" fill="white"/>
<path d="M191.986 70.4682C190.408 70.4682 189.129 69.189 189.129 67.611C189.129 66.0331 190.408 64.7539 191.986 64.7539C193.564 64.7539 194.844 66.0331 194.844 67.611C194.844 69.189 193.564 70.4682 191.986 70.4682Z" fill="white"/>
<path d="M151.777 92.4656V88.9134H151.699C151.523 88.9134 151.396 88.8646 151.309 88.7767C151.221 88.6889 151.172 88.562 151.172 88.3864C151.172 88.2009 151.221 88.0643 151.318 87.9862C151.416 87.8984 151.562 87.8594 151.777 87.8594H152.958C153.621 87.8594 154.109 87.8887 154.412 87.9472C154.724 88.0058 154.988 88.0936 155.202 88.2302C155.583 88.4547 155.876 88.7865 156.081 89.2061C156.286 89.6355 156.393 90.1235 156.393 90.6797C156.393 91.2653 156.276 91.7825 156.042 92.2217C155.807 92.6608 155.476 92.9926 155.046 93.2171C154.851 93.3244 154.627 93.3928 154.363 93.4416C154.109 93.4903 153.719 93.5099 153.202 93.5099H151.777C151.562 93.5099 151.406 93.4708 151.309 93.3928C151.221 93.3049 151.172 93.1683 151.172 92.9829C151.172 92.817 151.221 92.6803 151.309 92.5925C151.396 92.5144 151.523 92.4656 151.699 92.4656H151.777ZM153.007 88.8938V92.4656H153.28C153.885 92.4656 154.324 92.3193 154.607 92.0265C154.9 91.7337 155.036 91.275 155.036 90.67C155.036 90.0649 154.89 89.6258 154.607 89.3232C154.314 89.0305 153.875 88.8841 153.29 88.8841C153.212 88.8841 153.153 88.8841 153.114 88.8841C153.075 88.8841 153.036 88.8938 153.007 88.8938Z" fill="white"/>
<path d="M161.638 92.359H161.716C161.882 92.359 162.018 92.4078 162.106 92.4956C162.194 92.5834 162.243 92.7201 162.243 92.886C162.243 93.0714 162.194 93.1982 162.106 93.2861C162.009 93.3642 161.852 93.4032 161.638 93.4032H161.189C161.033 93.4032 160.916 93.3739 160.837 93.3154C160.759 93.2568 160.691 93.1397 160.642 92.9836C160.379 93.1592 160.096 93.2958 159.803 93.3837C159.51 93.4715 159.208 93.5203 158.905 93.5203C158.398 93.5203 157.998 93.3934 157.705 93.1397C157.412 92.886 157.266 92.5346 157.266 92.0955C157.266 91.6173 157.451 91.2464 157.832 90.983C158.212 90.7195 158.739 90.5926 159.422 90.5926C159.579 90.5926 159.735 90.6023 159.91 90.6121C160.076 90.6316 160.271 90.6609 160.486 90.6902V90.6023C160.486 90.3193 160.418 90.0949 160.281 89.9485C160.135 89.8021 159.94 89.724 159.666 89.724C159.452 89.724 159.188 89.8021 158.866 89.9583C158.534 90.1144 158.3 90.1925 158.144 90.1925C157.998 90.1925 157.871 90.1437 157.783 90.0558C157.695 89.9778 157.646 89.8607 157.646 89.7143C157.646 89.4605 157.832 89.2556 158.212 89.0995C158.583 88.9531 159.1 88.875 159.744 88.875C160.428 88.875 160.906 89.0019 161.199 89.2654C161.491 89.5289 161.638 89.968 161.638 90.5926V92.359ZM160.486 91.4416C160.33 91.4026 160.184 91.3831 160.047 91.3636C159.91 91.344 159.793 91.3343 159.676 91.3343C159.325 91.3343 159.052 91.3928 158.856 91.5099C158.651 91.627 158.554 91.7929 158.554 91.9979C158.554 92.1833 158.622 92.3199 158.749 92.4175C158.876 92.5151 159.052 92.5639 159.296 92.5639C159.51 92.5639 159.715 92.5346 159.91 92.4663C160.106 92.4078 160.301 92.3102 160.486 92.1736V91.4416Z" fill="white"/>
<path d="M166.16 92.3576H167.185C167.409 92.3576 167.566 92.3967 167.653 92.4747C167.741 92.5528 167.79 92.6894 167.79 92.8748C167.79 93.0603 167.741 93.1969 167.653 93.275C167.556 93.3628 167.4 93.4018 167.185 93.4018H163.964C163.75 93.4018 163.594 93.3628 163.496 93.275C163.408 93.1969 163.359 93.0603 163.359 92.8748C163.359 92.6894 163.408 92.5528 163.496 92.4747C163.584 92.3967 163.74 92.3576 163.964 92.3576H164.989V90.0447H164.452C164.238 90.0447 164.082 90.0057 163.994 89.9179C163.906 89.8398 163.857 89.7032 163.857 89.5177C163.857 89.3323 163.896 89.1957 163.994 89.1176C164.082 89.0395 164.228 89.0005 164.452 89.0005H165.887C165.975 89.0005 166.043 89.02 166.092 89.0493C166.141 89.0883 166.16 89.1371 166.16 89.2054V92.3576ZM165.477 86.8438C165.711 86.8438 165.858 86.8925 165.936 86.9804C166.014 87.0682 166.053 87.2829 166.053 87.6147C166.053 87.9368 166.014 88.1417 165.946 88.2198C165.877 88.2978 165.721 88.3369 165.467 88.3369C165.214 88.3369 165.057 88.2978 164.989 88.2295C164.911 88.1515 164.882 88.0051 164.882 87.7904C164.882 87.3805 164.921 87.1268 164.989 87.0097C165.067 86.9023 165.223 86.8438 165.477 86.8438Z" fill="white"/>
<path d="M172 92.2895H173.025C173.239 92.2895 173.395 92.3285 173.483 92.4066C173.571 92.4846 173.62 92.6213 173.62 92.8067C173.62 92.9921 173.571 93.1287 173.483 93.2068C173.395 93.2946 173.239 93.3337 173.025 93.3337H169.794C169.58 93.3337 169.423 93.2946 169.336 93.2068C169.248 93.1287 169.199 92.9921 169.199 92.8067C169.199 92.6213 169.248 92.4846 169.336 92.4066C169.423 92.3285 169.57 92.2895 169.794 92.2895H170.819V88.1516H170.292C170.077 88.1516 169.921 88.1126 169.824 88.0248C169.736 87.9467 169.687 87.8101 169.687 87.6246C169.687 87.4392 169.736 87.3026 169.824 87.2245C169.921 87.1367 170.077 87.0977 170.292 87.0977H171.717C171.805 87.0977 171.873 87.1172 171.922 87.1465C171.971 87.1855 172 87.2343 172 87.3026V92.2895Z" fill="white"/>
<path d="M176.346 89.9192L177.205 91.9491L178.103 89.9192H178.025C177.859 89.9192 177.722 89.8704 177.635 89.7826C177.547 89.6948 177.498 89.5679 177.498 89.3922C177.498 89.2068 177.547 89.0702 177.635 88.9921C177.722 88.914 177.879 88.875 178.103 88.875H179.225C179.45 88.875 179.606 88.914 179.694 88.9921C179.782 89.0799 179.83 89.2068 179.83 89.3922C179.83 89.5679 179.782 89.6948 179.694 89.7826C179.606 89.8704 179.479 89.9192 179.303 89.9192H179.225L177.264 94.1254H177.478C177.693 94.1254 177.849 94.1644 177.947 94.2522C178.035 94.3303 178.084 94.4669 178.084 94.6523C178.084 94.8378 178.035 94.9744 177.947 95.0525C177.849 95.1403 177.693 95.1793 177.478 95.1793H175.39C175.175 95.1793 175.019 95.1403 174.922 95.0525C174.834 94.9744 174.785 94.8378 174.785 94.6523C174.785 94.4669 174.834 94.3303 174.922 94.2522C175.019 94.1644 175.175 94.1254 175.39 94.1254H176.132L176.581 93.169L175.136 89.9192H175.058C174.883 89.9192 174.756 89.8704 174.668 89.7826C174.57 89.6948 174.531 89.5679 174.531 89.3922C174.531 89.2068 174.58 89.0702 174.668 88.9921C174.756 88.914 174.912 88.875 175.136 88.875H176.346C176.561 88.875 176.717 88.914 176.815 88.9921C176.903 89.0799 176.951 89.2068 176.951 89.3922C176.951 89.5679 176.903 89.6948 176.815 89.7826C176.727 89.8704 176.59 89.9192 176.425 89.9192H176.346Z" fill="white"/>
<path d="M188.104 91.0408V92.4949H188.816C189.324 92.4949 189.675 92.4364 189.88 92.329C190.095 92.2217 190.192 92.0265 190.192 91.7728C190.192 91.5093 190.095 91.3238 189.9 91.2067C189.705 91.0994 189.353 91.0408 188.865 91.0408H188.104ZM190.534 90.5138C190.876 90.6407 191.129 90.8164 191.295 91.0311C191.461 91.2555 191.539 91.5385 191.539 91.8801C191.539 92.1729 191.471 92.4364 191.325 92.6706C191.188 92.9048 190.993 93.1 190.729 93.2561C190.573 93.344 190.407 93.4123 190.212 93.4513C190.027 93.4903 189.763 93.5099 189.412 93.5099H186.923C186.718 93.5099 186.562 93.4708 186.474 93.383C186.386 93.3049 186.338 93.1683 186.338 92.9829C186.338 92.817 186.386 92.6803 186.465 92.5925C186.552 92.5144 186.679 92.4656 186.845 92.4656H186.923V88.9134H186.845C186.679 88.9134 186.552 88.8646 186.465 88.7767C186.386 88.6889 186.338 88.562 186.338 88.3864C186.338 88.2009 186.386 88.0643 186.474 87.9862C186.572 87.8984 186.718 87.8594 186.923 87.8594H189.119C189.792 87.8594 190.3 87.9862 190.641 88.2497C190.993 88.5132 191.168 88.8938 191.168 89.3915C191.168 89.6453 191.11 89.86 191.002 90.0454C190.905 90.2406 190.739 90.3967 190.534 90.5138ZM188.104 88.8841V90.0844H188.748C189.138 90.0844 189.412 90.0356 189.568 89.9478C189.734 89.8502 189.812 89.6941 189.812 89.4794C189.812 89.2744 189.744 89.1183 189.597 89.0305C189.451 88.9329 189.217 88.8841 188.895 88.8841H188.104Z" fill="white"/>
<path d="M195.486 92.3576H196.511C196.735 92.3576 196.891 92.3967 196.979 92.4747C197.067 92.5528 197.116 92.6894 197.116 92.8748C197.116 93.0603 197.067 93.1969 196.979 93.275C196.882 93.3628 196.726 93.4018 196.511 93.4018H193.29C193.076 93.4018 192.92 93.3628 192.822 93.275C192.734 93.1969 192.685 93.0603 192.685 92.8748C192.685 92.6894 192.734 92.5528 192.822 92.4747C192.91 92.3967 193.066 92.3576 193.29 92.3576H194.315V90.0447H193.778C193.564 90.0447 193.407 90.0057 193.32 89.9179C193.232 89.8398 193.183 89.7032 193.183 89.5177C193.183 89.3323 193.222 89.1957 193.32 89.1176C193.407 89.0395 193.554 89.0005 193.778 89.0005H195.213C195.301 89.0005 195.369 89.02 195.418 89.0493C195.467 89.0883 195.486 89.1371 195.486 89.2054V92.3576ZM194.803 86.8438C195.037 86.8438 195.184 86.8925 195.262 86.9804C195.34 87.0682 195.379 87.2829 195.379 87.6147C195.379 87.9368 195.34 88.1417 195.271 88.2198C195.203 88.2978 195.047 88.3369 194.793 88.3369C194.54 88.3369 194.383 88.2978 194.315 88.2295C194.237 88.1515 194.208 88.0051 194.208 87.7904C194.208 87.3805 194.247 87.1268 194.315 87.0097C194.393 86.9023 194.549 86.8438 194.803 86.8438Z" fill="white"/>
<path d="M200.36 89.3133H201.814C202.038 89.3133 202.185 89.3523 202.282 89.4304C202.37 89.5182 202.419 89.6451 202.419 89.8305C202.419 90.016 202.37 90.1526 202.282 90.2307C202.185 90.3185 202.028 90.3575 201.814 90.3575H200.36V91.5774C200.36 91.919 200.408 92.1532 200.516 92.28C200.623 92.4069 200.808 92.4752 201.072 92.4752C201.316 92.4752 201.609 92.4069 201.95 92.2605C202.282 92.1141 202.507 92.0458 202.624 92.0458C202.751 92.0458 202.868 92.0946 202.955 92.202C203.053 92.2996 203.102 92.4264 203.102 92.5728C203.102 92.8168 202.877 93.0413 202.438 93.2462C201.989 93.4414 201.492 93.5487 200.926 93.5487C200.604 93.5487 200.311 93.4999 200.067 93.4121C199.813 93.3243 199.618 93.1974 199.481 93.0315C199.374 92.9046 199.296 92.7485 199.257 92.5728C199.208 92.3972 199.189 92.0946 199.189 91.6847V90.3575H198.74C198.525 90.3575 198.369 90.3185 198.281 90.2307C198.193 90.1526 198.144 90.016 198.144 89.8305C198.144 89.6451 198.193 89.5085 198.281 89.4304C198.369 89.3523 198.525 89.3133 198.74 89.3133H199.189V88.2008C199.189 87.9763 199.237 87.8299 199.325 87.7421C199.413 87.6445 199.569 87.6055 199.774 87.6055C199.989 87.6055 200.135 87.6445 200.223 87.7421C200.311 87.8299 200.36 87.9763 200.36 88.2008V89.3133Z" fill="white"/>
<path d="M205.282 93.3544C205.195 93.4227 205.116 93.4715 205.029 93.5008C204.941 93.5301 204.853 93.5496 204.755 93.5496C204.619 93.5496 204.521 93.5105 204.472 93.4422C204.414 93.3642 204.385 93.2275 204.385 93.0324V92.398C204.385 92.1931 204.424 92.0369 204.492 91.9491C204.56 91.8613 204.677 91.8222 204.853 91.8222C205.038 91.8222 205.195 91.9101 205.312 92.0955C205.38 92.1931 205.438 92.2614 205.487 92.3102C205.643 92.4566 205.819 92.5542 206.034 92.6225C206.239 92.7005 206.473 92.7298 206.736 92.7298C206.961 92.7298 207.146 92.6908 207.283 92.603C207.42 92.5054 207.488 92.398 207.488 92.2516C207.488 91.9979 207.117 91.8125 206.385 91.7149C206.229 91.6954 206.102 91.6758 206.005 91.6661C205.448 91.588 205.038 91.4416 204.775 91.2172C204.502 90.9927 204.365 90.6902 204.365 90.3096C204.365 89.8607 204.531 89.5191 204.853 89.2751C205.175 89.0311 205.643 88.9043 206.239 88.9043C206.444 88.9043 206.658 88.9238 206.873 88.9531C207.098 88.9921 207.312 89.0409 207.546 89.1092C207.615 89.0311 207.683 88.9726 207.761 88.9336C207.829 88.8945 207.917 88.875 208.005 88.875C208.142 88.875 208.239 88.914 208.308 89.0019C208.376 89.0799 208.405 89.197 208.405 89.363V89.9485C208.405 90.0851 208.376 90.1925 208.298 90.2705C208.23 90.3389 208.132 90.3779 208.005 90.3779C207.878 90.3779 207.654 90.2608 207.341 90.0363C207.019 89.8119 206.707 89.6948 206.385 89.6948C206.141 89.6948 205.946 89.7338 205.809 89.8216C205.673 89.8997 205.604 90.007 205.604 90.1534C205.604 90.3779 205.887 90.5243 206.463 90.6023C206.629 90.6219 206.756 90.6414 206.854 90.6511C207.576 90.7585 208.064 90.9146 208.337 91.1196C208.6 91.3245 208.737 91.6368 208.737 92.0467C208.737 92.5249 208.561 92.8957 208.2 93.1592C207.849 93.4227 207.351 93.5496 206.697 93.5496C206.444 93.5496 206.2 93.5301 205.965 93.5008C205.731 93.4715 205.497 93.4227 205.282 93.3544Z" fill="white"/>
</svg>
